<svg id="svg" version="1.1" xmlns="http://www.w3.org/2000/svg" xmlns:xlink="http://www.w3.org/1999/xlink" width="400" height="86.99186991869918" viewBox="0, 0, 400,86.99186991869918"><g id="svgg"><path id="path0" d="M28.542 1.115 C 28.702 1.157,28.965 1.157,29.125 1.115 C 29.285 1.073,29.154 1.039,28.833 1.039 C 28.512 1.039,28.381 1.073,28.542 1.115 M92.583 6.009 C 86.046 6.926,83.640 7.620,78.917 9.948 C 76.393 11.192,75.789 11.509,75.333 11.831 C 75.054 12.029,74.087 12.661,73.674 12.917 C 73.526 13.008,73.295 13.175,73.161 13.288 C 73.026 13.401,72.317 13.963,71.585 14.538 C 67.032 18.112,62.750 23.608,60.383 28.917 C 59.345 31.244,58.000 35.058,58.000 35.672 C 58.000 35.827,57.849 36.561,57.665 37.302 C 57.480 38.043,57.286 39.233,57.234 39.947 C 57.181 40.660,57.110 41.290,57.076 41.346 C 56.868 41.681,56.820 46.023,57.002 47.917 C 57.117 49.108,57.235 50.421,57.265 50.833 C 57.332 51.761,57.905 54.410,58.328 55.750 C 58.502 56.300,58.691 56.991,58.750 57.285 C 58.809 57.579,59.001 58.119,59.178 58.485 C 59.355 58.851,59.500 59.237,59.500 59.342 C 59.500 60.256,63.862 68.167,64.366 68.167 C 64.440 68.167,64.500 68.244,64.500 68.339 C 64.500 69.183,72.150 76.833,72.993 76.833 C 73.089 76.833,73.167 76.893,73.167 76.967 C 73.167 77.207,78.248 80.333,78.638 80.333 C 78.749 80.333,79.137 80.521,79.500 80.750 C 79.863 80.979,80.237 81.167,80.331 81.167 C 80.424 81.167,80.781 81.317,81.123 81.500 C 81.465 81.683,81.841 81.833,81.958 81.833 C 82.075 81.833,82.488 81.972,82.877 82.142 C 83.671 82.489,83.732 82.506,87.956 83.601 C 88.803 83.820,89.778 84.000,90.123 84.001 C 90.468 84.001,91.200 84.077,91.750 84.168 C 94.512 84.628,101.552 84.304,104.417 83.586 C 105.242 83.379,106.351 83.112,106.883 82.993 C 107.414 82.874,107.887 82.714,107.934 82.638 C 107.981 82.562,108.183 82.500,108.382 82.500 C 108.986 82.500,110.942 81.699,113.833 80.267 C 115.917 79.235,116.153 79.104,116.947 78.542 C 117.239 78.336,117.546 78.167,117.630 78.167 C 117.713 78.167,117.917 78.017,118.083 77.833 C 118.249 77.650,118.448 77.500,118.525 77.500 C 118.749 77.500,120.333 76.318,120.333 76.151 C 120.333 76.068,120.429 76.000,120.546 76.000 C 120.663 76.000,120.880 75.869,121.028 75.708 C 121.176 75.548,121.658 75.117,122.098 74.750 C 123.113 73.905,125.226 71.807,126.043 70.831 C 126.873 69.840,128.910 67.128,129.052 66.824 C 129.114 66.692,129.465 66.107,129.832 65.525 C 130.200 64.943,130.500 64.404,130.500 64.329 C 130.500 64.253,130.596 64.091,130.714 63.970 C 130.832 63.849,131.134 63.300,131.385 62.750 C 131.637 62.200,132.028 61.394,132.254 60.958 C 132.481 60.523,132.667 60.017,132.667 59.833 C 132.667 59.650,132.742 59.500,132.833 59.500 C 132.925 59.500,133.000 59.386,133.000 59.248 C 133.000 59.109,133.065 58.865,133.145 58.706 C 133.284 58.430,133.526 57.648,134.346 54.833 C 134.546 54.146,134.742 53.321,134.780 53.000 C 134.818 52.679,134.977 51.704,135.133 50.833 C 136.147 45.176,135.106 36.320,132.753 30.583 C 131.883 28.463,130.564 25.867,129.688 24.550 C 129.309 23.981,129.000 23.476,129.000 23.426 C 129.000 22.826,124.552 17.742,122.245 15.706 C 121.698 15.223,121.131 14.716,120.986 14.581 C 120.841 14.445,120.653 14.333,120.568 14.333 C 120.483 14.333,120.320 14.183,120.205 14.000 C 120.091 13.817,119.892 13.667,119.762 13.667 C 119.633 13.667,119.503 13.609,119.472 13.540 C 119.410 13.397,117.889 12.297,117.500 12.113 C 117.362 12.048,116.912 11.776,116.500 11.508 C 110.424 7.568,99.453 5.046,92.583 6.009 M89.043 19.578 C 94.216 20.674,97.427 26.524,95.469 31.286 C 95.080 32.233,95.067 32.341,95.313 32.553 C 95.462 32.680,97.851 34.412,100.622 36.401 L 105.661 40.017 106.660 39.185 C 114.204 32.907,124.737 41.242,120.302 49.979 C 117.826 54.856,111.278 56.165,106.853 52.667 C 106.371 52.285,105.888 52.014,105.780 52.063 C 104.950 52.444,95.920 59.810,95.940 60.090 C 95.953 60.270,96.130 60.867,96.332 61.417 C 99.498 69.993,88.397 76.974,81.790 70.562 C 73.894 62.899,84.896 50.518,93.527 57.355 L 94.183 57.874 95.133 57.134 C 103.470 50.636,104.514 49.778,104.403 49.520 C 103.504 47.419,103.445 45.017,104.231 42.557 C 104.345 42.200,102.751 40.984,94.685 35.276 L 93.544 34.468 92.535 35.211 C 86.383 39.740,77.849 35.113,78.376 27.534 C 78.746 22.204,83.767 18.460,89.043 19.578 M85.500 23.036 C 81.864 24.314,80.544 28.431,82.809 31.427 C 84.910 34.207,88.998 34.385,91.272 31.795 C 94.893 27.671,90.646 21.227,85.500 23.036 M13.737 28.750 C 13.737 30.583,13.761 31.356,13.791 30.467 C 13.821 29.578,13.821 28.078,13.791 27.134 C 13.761 26.189,13.737 26.917,13.737 28.750 M231.375 37.448 C 231.535 37.490,231.798 37.490,231.958 37.448 C 232.119 37.406,231.987 37.372,231.667 37.372 C 231.346 37.372,231.215 37.406,231.375 37.448 M255.740 42.250 C 255.740 44.817,255.763 45.843,255.791 44.532 C 255.820 43.220,255.819 41.120,255.791 39.865 C 255.763 38.610,255.740 39.683,255.740 42.250 M111.155 40.551 C 106.199 41.952,105.542 48.444,110.128 50.701 C 115.480 53.336,120.468 46.628,116.511 42.121 C 115.349 40.798,112.861 40.069,111.155 40.551 M245.958 47.118 C 246.165 47.157,246.502 47.157,246.708 47.118 C 246.915 47.078,246.746 47.045,246.333 47.045 C 245.921 47.045,245.752 47.078,245.958 47.118 M86.500 58.989 C 80.642 60.777,81.566 69.289,87.655 69.629 C 92.794 69.915,95.432 63.667,91.619 60.239 C 90.293 59.046,88.081 58.506,86.500 58.989 M13.712 60.833 C 13.712 61.246,13.745 61.415,13.784 61.208 C 13.824 61.002,13.824 60.665,13.784 60.458 C 13.745 60.252,13.712 60.421,13.712 60.833 " stroke="none" fill="#8c54fb" fill-rule="evenodd"></path><path id="path1" d="M26.621 1.120 C 26.917 1.157,27.442 1.158,27.788 1.122 C 28.134 1.086,27.892 1.055,27.250 1.055 C 26.608 1.054,26.325 1.083,26.621 1.120 M349.749 43.500 C 349.749 66.279,349.768 75.598,349.792 64.208 C 349.815 52.819,349.815 34.181,349.792 22.792 C 349.768 11.402,349.749 20.721,349.749 43.500 M28.125 10.454 C 28.423 10.491,28.910 10.491,29.208 10.454 C 29.506 10.417,29.262 10.387,28.667 10.387 C 28.071 10.387,27.827 10.417,28.125 10.454 M30.542 10.615 C 30.702 10.657,30.965 10.657,31.125 10.615 C 31.285 10.573,31.154 10.539,30.833 10.539 C 30.512 10.539,30.381 10.573,30.542 10.615 M162.633 11.624 C 163.394 11.655,164.594 11.655,165.300 11.624 C 166.006 11.593,165.383 11.567,163.917 11.567 C 162.450 11.568,161.872 11.593,162.633 11.624 M166.681 11.729 C 166.719 11.763,167.125 11.834,167.583 11.887 C 168.145 11.952,168.281 11.937,168.000 11.842 C 167.584 11.700,166.549 11.612,166.681 11.729 M230.971 11.792 C 236.318 11.816,245.018 11.816,250.305 11.792 C 255.591 11.767,251.217 11.747,240.583 11.747 C 229.950 11.747,225.625 11.767,230.971 11.792 M169.333 12.084 C 169.333 12.169,170.203 12.552,170.848 12.751 C 171.069 12.819,171.213 12.834,171.167 12.785 C 171.039 12.646,169.333 11.994,169.333 12.084 M171.667 13.009 C 172.101 13.304,172.833 13.678,172.833 13.604 C 172.833 13.512,171.683 12.833,171.532 12.836 C 171.469 12.837,171.529 12.915,171.667 13.009 M286.833 13.333 C 286.833 13.425,286.898 13.500,286.977 13.500 C 287.057 13.500,287.242 13.781,287.389 14.125 C 287.651 14.735,287.594 14.287,287.315 13.542 C 287.175 13.167,286.833 13.019,286.833 13.333 M320.048 14.250 C 320.049 14.708,320.081 14.876,320.120 14.623 C 320.158 14.369,320.157 13.994,320.117 13.789 C 320.078 13.584,320.046 13.792,320.048 14.250 M173.167 13.725 C 173.167 13.768,173.635 14.139,174.208 14.549 C 175.381 15.387,176.638 16.662,177.570 17.960 C 177.915 18.440,178.233 18.833,178.276 18.833 C 178.462 18.833,176.849 16.718,176.065 15.935 C 175.279 15.149,173.167 13.538,173.167 13.725 M286.881 14.417 C 286.882 14.875,286.915 15.043,286.953 14.789 C 286.991 14.536,286.990 14.161,286.951 13.956 C 286.911 13.751,286.880 13.958,286.881 14.417 M319.883 17.167 C 319.883 17.671,319.915 17.877,319.953 17.625 C 319.991 17.373,319.991 16.960,319.953 16.708 C 319.915 16.456,319.883 16.662,319.883 17.167 M319.714 18.917 C 319.716 19.375,319.748 19.543,319.786 19.289 C 319.825 19.036,319.824 18.661,319.784 18.456 C 319.744 18.251,319.713 18.458,319.714 18.917 M178.583 19.667 C 178.726 19.942,178.879 20.167,178.925 20.167 C 178.971 20.167,178.892 19.942,178.750 19.667 C 178.608 19.392,178.454 19.167,178.408 19.167 C 178.362 19.167,178.441 19.392,178.583 19.667 M84.989 19.656 C 81.236 20.658,78.639 23.752,78.376 27.534 C 77.849 35.113,86.383 39.740,92.535 35.211 L 93.544 34.468 94.685 35.276 C 102.751 40.984,104.345 42.200,104.231 42.557 C 103.445 45.017,103.504 47.419,104.403 49.520 C 104.514 49.778,103.470 50.636,95.133 57.134 L 94.183 57.874 93.527 57.355 C 84.896 50.518,73.894 62.899,81.790 70.562 C 88.397 76.974,99.498 69.993,96.332 61.417 C 96.130 60.867,95.953 60.270,95.940 60.090 C 95.920 59.810,104.950 52.444,105.780 52.063 C 105.888 52.014,106.371 52.285,106.853 52.667 C 111.278 56.165,117.826 54.856,120.302 49.979 C 124.737 41.242,114.204 32.907,106.660 39.185 L 105.661 40.017 100.622 36.401 C 97.851 34.412,95.462 32.680,95.313 32.553 C 95.067 32.341,95.080 32.233,95.469 31.286 C 98.097 24.895,91.750 17.851,84.989 19.656 M89.294 23.169 C 94.039 25.268,93.569 32.113,88.590 33.439 C 84.524 34.522,80.731 30.711,81.913 26.731 C 82.854 23.561,86.358 21.870,89.294 23.169 M179.870 23.417 C 179.871 23.600,179.930 23.975,180.000 24.250 C 180.114 24.699,180.128 24.708,180.130 24.333 C 180.132 24.104,180.073 23.729,180.000 23.500 C 179.895 23.174,179.867 23.155,179.870 23.417 M13.887 24.333 C 13.887 24.929,13.917 25.173,13.954 24.875 C 13.991 24.577,13.991 24.090,13.954 23.792 C 13.917 23.494,13.887 23.738,13.887 24.333 M221.383 24.667 C 221.383 25.171,221.415 25.377,221.453 25.125 C 221.491 24.873,221.491 24.460,221.453 24.208 C 221.415 23.956,221.383 24.162,221.383 24.667 M180.212 25.500 C 180.212 25.912,180.245 26.081,180.284 25.875 C 180.324 25.669,180.324 25.331,180.284 25.125 C 180.245 24.919,180.212 25.087,180.212 25.500 M180.407 31.583 C 180.407 34.425,180.430 35.611,180.458 34.219 C 180.486 32.827,180.486 30.502,180.458 29.052 C 180.430 27.603,180.408 28.742,180.407 31.583 M221.373 31.958 L 221.333 37.500 225.375 37.461 L 229.417 37.423 225.461 37.375 L 221.505 37.327 221.458 31.872 L 221.412 26.417 221.373 31.958 M180.399 39.250 C 180.399 40.533,180.426 41.036,180.457 40.368 C 180.489 39.699,180.489 38.649,180.457 38.034 C 180.425 37.420,180.399 37.967,180.399 39.250 M230.294 37.451 C 230.501 37.491,230.801 37.490,230.960 37.448 C 231.120 37.406,230.950 37.374,230.583 37.375 C 230.217 37.377,230.086 37.411,230.294 37.451 M233.788 37.454 C 234.084 37.490,234.609 37.491,234.955 37.455 C 235.300 37.419,235.058 37.389,234.417 37.388 C 233.775 37.387,233.492 37.417,233.788 37.454 M303.073 38.722 C 303.124 38.890,303.167 39.134,303.167 39.264 C 303.167 39.667,303.925 39.554,303.956 39.147 C 303.981 38.815,303.969 38.812,303.763 39.094 C 303.557 39.375,303.524 39.363,303.261 38.906 C 303.106 38.637,303.021 38.554,303.073 38.722 M114.944 41.003 C 120.046 43.503,118.196 51.244,112.496 51.249 C 107.772 51.253,105.344 45.849,108.425 42.187 C 109.917 40.414,112.708 39.907,114.944 41.003 M180.400 47.667 C 180.400 48.996,180.425 49.540,180.457 48.875 C 180.489 48.210,180.489 47.123,180.457 46.458 C 180.425 45.794,180.400 46.337,180.400 47.667 M56.875 47.583 C 56.877 47.950,56.911 48.080,56.951 47.873 C 56.991 47.666,56.990 47.366,56.948 47.206 C 56.906 47.047,56.874 47.217,56.875 47.583 M221.373 54.958 L 221.413 62.917 221.458 55.043 L 221.503 47.169 233.627 47.125 L 245.750 47.081 233.542 47.041 L 221.333 47.000 221.373 54.958 M249.121 47.120 C 249.417 47.157,249.942 47.158,250.288 47.122 C 250.634 47.086,250.392 47.055,249.750 47.055 C 249.108 47.054,248.825 47.083,249.121 47.120 M180.407 55.500 C 180.407 58.296,180.430 59.440,180.458 58.042 C 180.486 56.644,180.486 54.356,180.458 52.958 C 180.430 51.560,180.407 52.704,180.407 55.500 M13.874 57.750 C 13.865 60.867,13.909 63.754,13.971 64.167 C 14.077 64.875,14.048 53.907,13.940 52.667 C 13.912 52.346,13.882 54.633,13.874 57.750 M89.902 59.176 C 92.294 60.070,93.792 62.677,93.335 65.148 C 92.131 71.663,82.584 70.866,82.584 64.250 C 82.584 60.398,86.294 57.825,89.902 59.176 M180.212 61.500 C 180.212 61.913,180.245 62.081,180.284 61.875 C 180.324 61.669,180.324 61.331,180.284 61.125 C 180.245 60.919,180.212 61.087,180.212 61.500 M190.872 61.833 C 190.872 62.154,190.906 62.285,190.948 62.125 C 190.990 61.965,190.990 61.702,190.948 61.542 C 190.906 61.381,190.872 61.512,190.872 61.833 M179.933 63.017 C 179.872 63.399,179.855 63.744,179.895 63.783 C 179.934 63.823,180.019 63.546,180.083 63.167 C 180.147 62.788,180.165 62.443,180.122 62.400 C 180.079 62.357,179.994 62.635,179.933 63.017 M221.388 64.250 C 221.389 64.892,221.419 65.134,221.455 64.788 C 221.491 64.442,221.490 63.917,221.454 63.621 C 221.417 63.325,221.387 63.608,221.388 64.250 M179.519 65.019 C 179.416 65.313,179.361 65.583,179.397 65.619 C 179.432 65.655,179.545 65.443,179.648 65.148 C 179.751 64.854,179.806 64.583,179.770 64.548 C 179.734 64.512,179.621 64.724,179.519 65.019 M14.512 66.872 C 14.493 67.069,15.036 68.353,15.108 68.281 C 15.144 68.245,15.027 67.886,14.849 67.483 C 14.670 67.080,14.518 66.805,14.512 66.872 M178.589 67.264 C 178.434 67.502,178.345 67.734,178.391 67.780 C 178.437 67.826,178.595 67.632,178.742 67.349 C 179.066 66.722,178.977 66.673,178.589 67.264 M221.395 68.833 C 221.395 69.796,221.423 70.190,221.456 69.708 C 221.490 69.227,221.490 68.440,221.456 67.958 C 221.423 67.477,221.395 67.871,221.395 68.833 M15.171 68.667 C 15.173 68.804,15.329 69.104,15.518 69.333 C 15.707 69.563,15.814 69.656,15.754 69.541 C 15.258 68.581,15.169 68.447,15.171 68.667 M15.948 70.170 C 16.184 70.612,17.041 71.833,17.115 71.833 C 17.229 71.833,16.625 70.868,16.202 70.372 C 15.988 70.122,15.873 70.031,15.948 70.170 M39.301 72.524 C 38.504 73.337,37.985 73.931,38.146 73.844 C 38.554 73.626,40.452 71.734,40.668 71.331 C 40.909 70.880,40.934 70.859,39.301 72.524 M175.500 71.417 C 175.285 71.646,175.156 71.833,175.213 71.833 C 175.271 71.833,175.506 71.646,175.735 71.417 C 175.964 71.188,176.093 71.000,176.021 71.000 C 175.950 71.000,175.715 71.188,175.500 71.417 M174.717 72.042 C 174.574 72.266,173.712 72.856,172.500 73.561 C 172.088 73.801,171.816 73.998,171.897 73.998 C 172.225 74.002,174.792 72.347,174.902 72.061 C 175.012 71.776,174.894 71.764,174.717 72.042 M170.750 74.333 C 170.383 74.503,170.196 74.644,170.333 74.647 C 170.471 74.650,170.846 74.509,171.167 74.333 C 171.909 73.927,171.627 73.927,170.750 74.333 M20.667 74.741 C 20.667 74.787,20.892 74.941,21.167 75.083 C 21.442 75.226,21.667 75.304,21.667 75.259 C 21.667 75.213,21.442 75.059,21.167 74.917 C 20.892 74.774,20.667 74.696,20.667 74.741 M35.957 74.986 C 35.291 75.413,35.168 75.586,35.750 75.277 C 36.448 74.907,36.780 74.670,36.583 74.681 C 36.492 74.687,36.210 74.824,35.957 74.986 M169.083 74.833 C 168.873 74.924,168.842 74.977,169.000 74.977 C 169.137 74.977,169.400 74.912,169.583 74.833 C 169.793 74.743,169.824 74.690,169.667 74.690 C 169.529 74.690,169.267 74.755,169.083 74.833 M163.049 75.457 C 163.671 75.489,164.646 75.489,165.215 75.457 C 165.784 75.424,165.275 75.398,164.083 75.398 C 162.892 75.398,162.426 75.425,163.049 75.457 M27.542 76.624 C 28.160 76.656,29.173 76.656,29.792 76.624 C 30.410 76.592,29.904 76.565,28.667 76.565 C 27.429 76.565,26.923 76.592,27.542 76.624 M287.061 83.250 C 287.061 84.167,287.089 84.520,287.123 84.036 C 287.157 83.552,287.156 82.802,287.122 82.369 C 287.088 81.937,287.060 82.333,287.061 83.250 M141.963 84.956 C 142.355 84.991,142.955 84.990,143.296 84.954 C 143.637 84.919,143.317 84.890,142.583 84.890 C 141.850 84.891,141.571 84.920,141.963 84.956 " stroke="none" fill="#dbdbdc" fill-rule="evenodd"></path><path id="path2" d="M28.500 1.116 C 22.524 1.240,18.185 2.335,13.898 4.802 C 12.284 5.730,8.807 8.961,7.917 10.360 C 7.825 10.504,7.469 11.046,7.125 11.564 C 6.781 12.082,6.500 12.618,6.500 12.753 C 6.500 12.889,6.439 13.000,6.363 13.000 C 6.160 13.000,4.958 15.844,4.496 17.417 C 3.486 20.861,3.488 20.835,3.421 42.667 C 3.351 65.605,3.393 66.488,4.721 70.250 C 4.916 70.800,5.079 71.325,5.085 71.417 C 5.106 71.760,6.887 75.255,7.105 75.383 C 7.231 75.457,7.333 75.591,7.333 75.682 C 7.333 76.014,9.148 78.351,10.104 79.250 C 11.494 80.558,11.975 80.966,12.467 81.257 C 12.760 81.430,13.000 81.631,13.000 81.703 C 13.000 81.775,13.107 81.833,13.238 81.833 C 13.369 81.833,13.575 81.932,13.696 82.052 C 13.818 82.172,14.142 82.383,14.417 82.521 C 14.692 82.659,15.067 82.854,15.250 82.954 C 15.575 83.132,16.743 83.671,18.083 84.263 C 18.450 84.425,18.938 84.585,19.167 84.619 C 19.688 84.694,20.695 85.006,20.917 85.159 C 21.008 85.223,21.401 85.293,21.789 85.317 C 22.177 85.340,23.264 85.500,24.205 85.672 C 25.623 85.933,26.474 85.974,29.167 85.914 C 32.450 85.840,32.878 85.806,34.083 85.521 C 34.450 85.434,35.087 85.327,35.500 85.284 C 35.912 85.240,36.578 85.083,36.979 84.936 C 37.380 84.788,37.882 84.667,38.094 84.667 C 38.307 84.667,38.527 84.590,38.585 84.497 C 38.643 84.404,38.760 84.371,38.845 84.424 C 38.930 84.477,39.000 84.444,39.000 84.351 C 39.000 84.258,39.281 84.131,39.625 84.070 C 39.969 84.008,40.362 83.866,40.500 83.753 C 40.637 83.640,41.313 83.267,42.000 82.923 C 42.688 82.580,43.368 82.194,43.513 82.066 C 43.658 81.938,43.864 81.833,43.971 81.833 C 44.079 81.833,44.167 81.775,44.167 81.703 C 44.167 81.631,44.382 81.445,44.645 81.290 C 45.371 80.860,48.061 78.201,48.816 77.167 C 49.183 76.662,49.582 76.140,49.700 76.005 C 49.920 75.757,49.974 75.667,50.706 74.327 C 51.808 72.312,52.510 70.583,52.837 69.083 C 52.917 68.717,53.139 67.945,53.330 67.369 C 53.522 66.793,53.661 66.230,53.640 66.119 C 53.593 65.871,53.831 64.034,53.950 63.724 C 54.021 63.539,53.123 63.500,48.854 63.500 L 43.673 63.500 43.572 63.958 C 43.516 64.210,43.356 64.867,43.216 65.417 C 43.077 65.967,42.905 66.679,42.835 67.000 C 42.661 67.791,41.702 69.833,41.504 69.833 C 41.416 69.833,41.376 69.927,41.416 70.042 C 41.858 71.311,36.239 75.595,33.500 76.076 C 33.271 76.116,32.524 76.270,31.841 76.417 C 30.200 76.771,27.136 76.767,25.413 76.409 C 24.682 76.256,23.933 76.114,23.750 76.093 C 23.567 76.071,23.060 75.896,22.625 75.703 C 22.190 75.510,21.833 75.386,21.833 75.428 C 21.833 75.470,21.552 75.333,21.208 75.123 C 20.865 74.914,20.383 74.641,20.138 74.517 C 19.435 74.160,18.078 72.974,18.139 72.769 C 18.169 72.667,18.138 72.640,18.069 72.709 C 17.910 72.867,17.333 72.357,17.333 72.058 C 17.333 71.934,17.263 71.833,17.178 71.833 C 16.971 71.833,16.131 70.620,15.622 69.583 C 14.723 67.756,14.610 67.389,14.000 64.302 C 13.808 63.331,13.716 24.211,13.904 23.167 C 14.237 21.308,15.197 18.043,15.471 17.835 C 15.533 17.788,15.694 17.525,15.829 17.250 C 15.964 16.975,16.227 16.553,16.412 16.313 C 16.598 16.072,16.900 15.660,17.083 15.396 C 17.535 14.746,18.591 13.754,19.500 13.125 C 19.912 12.839,20.287 12.558,20.333 12.500 C 20.466 12.331,22.070 11.586,22.208 11.628 C 22.277 11.649,22.333 11.579,22.333 11.472 C 22.333 11.365,22.378 11.322,22.432 11.376 C 22.486 11.431,22.869 11.330,23.283 11.152 C 23.697 10.975,24.309 10.801,24.643 10.767 C 24.977 10.732,26.019 10.606,26.958 10.488 C 28.348 10.312,28.985 10.312,30.375 10.484 C 31.315 10.601,32.308 10.722,32.583 10.754 C 32.858 10.785,33.610 10.998,34.254 11.227 C 35.280 11.591,35.950 11.906,37.606 12.804 C 37.829 12.925,38.102 13.169,38.213 13.345 C 38.323 13.522,38.489 13.668,38.582 13.670 C 39.086 13.680,42.589 18.167,42.093 18.167 C 42.045 18.167,42.146 18.417,42.318 18.723 C 42.663 19.337,43.500 22.405,43.500 23.055 C 43.500 23.280,43.619 23.510,43.764 23.566 C 44.147 23.713,53.801 23.690,53.883 23.542 C 54.017 23.297,53.635 20.894,53.238 19.484 C 53.015 18.696,52.833 17.937,52.833 17.798 C 52.833 17.334,51.445 13.978,50.976 13.308 C 50.806 13.064,50.667 12.755,50.667 12.620 C 50.667 12.485,50.553 12.280,50.414 12.164 C 50.274 12.049,50.041 11.702,49.895 11.394 C 49.748 11.086,49.562 10.833,49.481 10.833 C 49.400 10.833,49.333 10.752,49.333 10.652 C 49.333 10.246,46.952 7.673,45.364 6.364 C 41.145 2.885,35.026 0.981,28.500 1.116 M141.333 43.489 L 141.333 84.840 153.375 84.811 C 168.979 84.774,169.826 84.722,173.340 83.576 C 174.031 83.351,174.706 83.167,174.840 83.167 C 174.974 83.167,175.402 83.017,175.792 82.834 C 176.181 82.650,176.856 82.342,177.292 82.150 C 177.727 81.957,178.233 81.719,178.417 81.620 C 178.600 81.522,178.901 81.360,179.086 81.262 C 179.270 81.164,179.645 80.924,179.919 80.730 C 180.193 80.536,180.578 80.327,180.776 80.266 C 180.974 80.204,181.178 80.044,181.229 79.910 C 181.281 79.776,181.398 79.667,181.489 79.667 C 181.908 79.667,186.160 75.464,186.170 75.040 C 186.171 74.972,186.361 74.738,186.591 74.519 C 186.822 74.300,186.974 74.085,186.930 74.041 C 186.885 73.997,186.939 73.859,187.050 73.736 C 187.562 73.162,187.667 72.996,187.667 72.757 C 187.667 72.616,187.733 72.500,187.813 72.500 C 187.894 72.500,188.052 72.256,188.164 71.958 C 188.277 71.660,188.541 71.079,188.750 70.667 C 188.960 70.254,189.182 69.673,189.245 69.375 C 189.308 69.077,189.421 68.833,189.495 68.833 C 189.616 68.833,189.679 68.600,189.944 67.172 C 189.985 66.946,190.084 66.683,190.162 66.589 C 190.241 66.494,190.305 66.359,190.305 66.289 C 190.305 66.219,190.350 65.882,190.404 65.539 C 190.505 64.908,190.524 64.756,190.827 62.083 C 191.206 58.745,191.002 26.074,190.581 22.583 C 190.456 21.556,189.824 19.002,189.487 18.167 C 189.320 17.754,189.133 17.229,189.070 17.000 C 189.007 16.771,188.816 16.384,188.645 16.141 C 188.473 15.898,188.333 15.621,188.333 15.525 C 188.333 15.206,186.561 12.302,186.301 12.194 C 186.227 12.164,186.167 12.035,186.167 11.909 C 186.167 11.782,186.017 11.598,185.833 11.500 C 185.650 11.402,185.500 11.247,185.500 11.155 C 185.500 10.906,182.314 7.833,182.056 7.833 C 181.933 7.833,181.833 7.764,181.833 7.680 C 181.833 7.595,181.402 7.261,180.875 6.937 C 180.348 6.613,179.842 6.285,179.750 6.207 C 179.560 6.047,177.946 5.213,176.833 4.700 C 175.275 3.981,171.728 2.835,171.046 2.830 C 170.792 2.828,169.983 2.706,169.250 2.559 C 168.113 2.330,165.961 2.280,154.625 2.215 L 141.333 2.139 141.333 43.489 M210.833 43.500 L 210.833 84.833 235.333 84.833 L 259.833 84.833 259.833 80.083 L 259.833 75.333 240.594 75.333 L 221.355 75.333 221.344 61.160 L 221.333 46.987 234.958 47.000 C 242.452 47.007,250.177 47.010,252.125 47.006 L 255.667 47.000 255.667 42.250 L 255.667 37.500 245.958 37.484 C 240.619 37.476,232.896 37.481,228.796 37.496 L 221.342 37.523 221.340 24.595 L 221.337 11.667 240.585 11.667 L 259.833 11.667 259.833 6.917 L 259.833 2.167 235.333 2.167 L 210.833 2.167 210.833 43.500 M277.500 43.498 L 277.500 84.833 282.250 84.833 L 287.000 84.833 287.002 83.208 C 287.037 59.832,286.944 15.416,286.857 14.458 C 286.757 13.347,286.778 13.167,287.003 13.167 C 287.257 13.167,287.667 14.280,287.667 14.971 C 287.667 15.136,287.821 15.590,288.009 15.980 C 288.198 16.370,288.381 16.921,288.417 17.205 C 288.478 17.683,288.820 18.833,289.449 20.667 C 289.591 21.079,289.741 21.604,289.784 21.833 C 289.827 22.063,290.032 22.700,290.239 23.250 C 290.828 24.806,291.333 26.391,291.333 26.677 C 291.333 26.820,291.483 27.248,291.667 27.627 C 291.850 28.007,292.000 28.457,292.000 28.627 C 292.000 28.798,292.145 29.238,292.323 29.605 C 292.500 29.972,292.694 30.492,292.753 30.761 C 292.812 31.030,293.005 31.601,293.180 32.031 C 293.356 32.460,293.500 32.953,293.500 33.125 C 293.500 33.297,293.650 33.748,293.833 34.127 C 294.017 34.507,294.167 34.957,294.167 35.127 C 294.167 35.298,294.324 35.763,294.516 36.160 C 294.846 36.843,295.036 37.416,295.515 39.167 C 295.628 39.579,295.865 40.235,296.041 40.624 C 296.218 41.014,296.384 41.501,296.411 41.708 C 296.438 41.914,296.618 42.446,296.813 42.889 C 297.008 43.332,297.167 43.794,297.167 43.917 C 297.167 44.039,297.316 44.488,297.499 44.914 C 297.681 45.340,297.862 45.852,297.899 46.052 C 297.937 46.253,298.116 46.792,298.298 47.250 L 298.628 48.083 303.522 48.083 L 308.417 48.083 308.609 47.333 C 308.797 46.605,309.062 45.804,309.685 44.083 C 309.851 43.625,310.187 42.612,310.432 41.833 C 310.678 41.054,311.025 40.049,311.205 39.599 C 311.384 39.150,311.566 38.592,311.608 38.359 C 311.650 38.127,311.820 37.595,311.986 37.177 C 312.307 36.366,313.374 33.244,313.755 32.000 C 314.164 30.663,314.539 29.599,314.856 28.871 C 315.027 28.479,315.167 27.987,315.167 27.779 C 315.167 27.570,315.230 27.329,315.308 27.242 C 315.386 27.155,315.619 26.521,315.827 25.833 C 316.034 25.146,316.308 24.347,316.435 24.058 C 316.562 23.769,316.666 23.432,316.665 23.308 C 316.663 23.078,317.082 21.700,317.696 19.917 C 317.886 19.367,318.061 18.713,318.087 18.464 C 318.112 18.215,318.299 17.502,318.502 16.880 C 319.075 15.124,319.313 14.286,319.367 13.833 C 319.402 13.542,319.534 13.400,319.806 13.362 L 320.195 13.306 320.080 15.612 C 320.017 16.879,319.894 18.442,319.806 19.083 C 319.713 19.769,319.608 33.561,319.551 52.542 L 319.455 84.833 324.311 84.833 L 329.167 84.833 329.167 43.500 L 329.167 2.167 322.670 2.167 L 316.173 2.167 316.076 2.625 C 316.023 2.877,315.806 3.571,315.595 4.167 C 315.383 4.763,315.117 5.513,315.003 5.833 C 314.889 6.154,314.698 6.754,314.579 7.167 C 314.341 7.988,313.981 9.043,313.414 10.583 C 312.819 12.199,312.473 13.216,312.339 13.750 C 312.270 14.025,312.091 14.540,311.940 14.895 C 311.790 15.250,311.667 15.642,311.667 15.766 C 311.667 15.890,311.486 16.387,311.265 16.870 C 311.044 17.354,310.828 17.938,310.785 18.167 C 310.706 18.584,310.272 19.885,309.950 20.667 C 309.752 21.148,309.730 21.216,309.533 22.000 C 309.453 22.321,309.225 22.949,309.027 23.396 C 308.829 23.843,308.667 24.316,308.667 24.446 C 308.667 24.576,308.517 24.993,308.333 25.373 C 308.150 25.752,308.000 26.203,308.000 26.375 C 308.000 26.547,307.845 27.049,307.655 27.490 C 307.465 27.932,307.294 28.395,307.275 28.521 C 307.257 28.647,307.085 29.162,306.895 29.667 C 306.251 31.374,305.963 32.248,305.795 33.000 C 305.703 33.412,305.565 33.829,305.487 33.926 C 305.352 34.094,305.172 34.687,304.575 36.917 C 304.428 37.467,304.225 38.217,304.124 38.583 C 304.022 38.950,303.953 39.306,303.970 39.375 C 303.986 39.444,303.822 39.500,303.605 39.500 C 303.272 39.500,303.179 39.375,303.014 38.708 C 302.907 38.273,302.672 37.424,302.493 36.822 C 302.313 36.219,302.167 35.544,302.167 35.322 C 302.167 35.099,302.017 34.522,301.833 34.040 C 301.650 33.558,301.500 33.053,301.500 32.918 C 301.500 32.783,301.176 31.828,300.780 30.795 C 300.082 28.975,299.880 28.434,299.474 27.292 C 299.368 26.994,299.105 26.300,298.890 25.750 C 298.675 25.200,298.476 24.600,298.449 24.417 C 298.421 24.233,298.271 23.843,298.116 23.550 C 297.960 23.257,297.833 22.897,297.833 22.752 C 297.833 22.606,297.683 22.193,297.500 21.833 C 297.317 21.474,297.167 21.061,297.167 20.915 C 297.167 20.770,297.014 20.336,296.828 19.950 C 296.642 19.565,296.457 19.063,296.417 18.833 C 296.376 18.604,296.191 18.101,296.005 17.716 C 295.819 17.331,295.667 16.840,295.667 16.625 C 295.667 16.409,295.593 16.160,295.504 16.070 C 295.414 15.981,295.198 15.497,295.023 14.995 C 294.849 14.494,294.469 13.446,294.179 12.667 C 293.889 11.887,293.612 11.036,293.563 10.775 C 293.514 10.514,293.331 10.064,293.155 9.775 C 292.979 9.486,292.834 9.100,292.832 8.917 C 292.831 8.733,292.646 8.208,292.420 7.750 C 292.195 7.292,292.008 6.782,292.005 6.618 C 292.002 6.454,291.850 6.026,291.667 5.667 C 291.483 5.307,291.333 4.914,291.333 4.793 C 291.333 4.673,291.113 4.051,290.843 3.412 L 290.353 2.250 283.927 2.206 L 277.500 2.163 277.500 43.498 M349.833 43.500 L 349.833 84.833 374.583 84.833 L 399.333 84.833 399.333 80.083 L 399.333 75.333 379.750 75.333 L 360.167 75.333 360.167 38.750 L 360.167 2.167 355.000 2.167 L 349.833 2.167 349.833 43.500 M167.583 11.756 C 168.225 11.894,168.994 12.039,169.292 12.079 C 169.590 12.119,170.181 12.305,170.605 12.492 C 171.029 12.680,171.451 12.833,171.543 12.833 C 171.635 12.833,171.982 13.002,172.314 13.207 C 172.645 13.413,172.962 13.582,173.017 13.582 C 173.257 13.585,175.257 15.106,176.011 15.861 C 178.461 18.311,179.788 21.218,180.333 25.333 C 180.706 28.156,180.448 61.713,180.039 63.500 C 179.298 66.737,178.085 69.044,176.056 71.076 C 175.133 72.000,173.470 73.333,173.241 73.333 C 173.183 73.333,172.919 73.487,172.654 73.676 C 172.390 73.864,172.029 74.046,171.853 74.080 C 171.677 74.113,171.316 74.253,171.052 74.390 C 170.787 74.527,169.786 74.832,168.827 75.069 L 167.083 75.500 159.375 75.500 L 151.667 75.500 151.667 43.500 L 151.667 11.500 159.042 11.503 C 164.964 11.505,166.646 11.555,167.583 11.756 " stroke="none" fill="#040404" fill-rule="evenodd"></path></g></svg>