<?xml version="1.0" encoding="UTF-8"?>
<!DOCTYPE svg PUBLIC "-//W3C//DTD SVG 1.1//EN" "http://www.w3.org/Graphics/SVG/1.1/DTD/svg11.dtd">
<svg xmlns="http://www.w3.org/2000/svg" version="1.1" width="465px" height="100px" style="shape-rendering:geometricPrecision; text-rendering:geometricPrecision; image-rendering:optimizeQuality; fill-rule:evenodd; clip-rule:evenodd" xmlns:xlink="http://www.w3.org/1999/xlink">
<g><path style="opacity:1" fill="#fcfcfc" d="M -0.5,-0.5 C 154.5,-0.5 309.5,-0.5 464.5,-0.5C 464.5,28.8333 464.5,58.1667 464.5,87.5C 449.5,87.5 434.5,87.5 419.5,87.5C 419.5,58.8333 419.5,30.1667 419.5,1.5C 415.5,1.5 411.5,1.5 407.5,1.5C 407.5,33.8333 407.5,66.1667 407.5,98.5C 426.5,98.5 445.5,98.5 464.5,98.5C 464.5,98.8333 464.5,99.1667 464.5,99.5C 322.5,99.5 180.5,99.5 38.5,99.5C 51.3654,95.6291 58.3654,86.9624 59.5,73.5C 55.5,73.5 51.5,73.5 47.5,73.5C 46.3532,83.809 40.5199,89.1423 30,89.5C 21.0443,88.8814 15.3776,84.2147 13,75.5C 12.3333,58.5 12.3333,41.5 13,24.5C 17.7845,11.8656 26.6178,8.03231 39.5,13C 44.8649,15.896 47.5316,20.396 47.5,26.5C 51.5,26.5 55.5,26.5 59.5,26.5C 58.7396,14.4776 52.7396,6.31098 41.5,2C 25.722,-2.96333 13.222,1.20333 4,14.5C 2.39531,17.6478 1.39531,20.9811 1,24.5C 0.0808017,43.2051 0.414135,61.8717 2,80.5C 3.85783,85.0485 6.35783,89.2152 9.5,93C 13.4339,95.4639 17.4339,97.6306 21.5,99.5C 14.1667,99.5 6.83333,99.5 -0.5,99.5C -0.5,66.1667 -0.5,32.8333 -0.5,-0.5 Z"/></g>
<g><path style="opacity:1" fill="#080808" d="M 38.5,99.5 C 32.8333,99.5 27.1667,99.5 21.5,99.5C 17.4339,97.6306 13.4339,95.4639 9.5,93C 6.35783,89.2152 3.85783,85.0485 2,80.5C 0.414135,61.8717 0.0808017,43.2051 1,24.5C 1.39531,20.9811 2.39531,17.6478 4,14.5C 13.222,1.20333 25.722,-2.96333 41.5,2C 52.7396,6.31098 58.7396,14.4776 59.5,26.5C 55.5,26.5 51.5,26.5 47.5,26.5C 47.5316,20.396 44.8649,15.896 39.5,13C 26.6178,8.03231 17.7845,11.8656 13,24.5C 12.3333,41.5 12.3333,58.5 13,75.5C 15.3776,84.2147 21.0443,88.8814 30,89.5C 40.5199,89.1423 46.3532,83.809 47.5,73.5C 51.5,73.5 55.5,73.5 59.5,73.5C 58.3654,86.9624 51.3654,95.6291 38.5,99.5 Z"/></g>
<g><path style="opacity:1" fill="#1c1c1c" d="M 196.5,2.5 C 185.5,2.5 174.5,2.5 163.5,2.5C 163.5,34.5 163.5,66.5 163.5,98.5C 162.502,66.3376 162.168,34.0043 162.5,1.5C 174.012,1.1719 185.346,1.50523 196.5,2.5 Z"/></g>
<g><path style="opacity:1" fill="#030303" d="M 196.5,2.5 C 208.457,4.28884 216.291,10.9555 220,22.5C 220.935,41.5438 220.602,60.5438 219,79.5C 215.147,90.0125 207.647,96.1792 196.5,98C 185.505,98.4998 174.505,98.6665 163.5,98.5C 163.5,66.5 163.5,34.5 163.5,2.5C 174.5,2.5 185.5,2.5 196.5,2.5 Z"/></g>
<g><path style="opacity:1" fill="#040404" d="M 244.5,1.5 C 263.5,1.5 282.5,1.5 301.5,1.5C 301.5,5.16667 301.5,8.83333 301.5,12.5C 286.5,12.5 271.5,12.5 256.5,12.5C 256.5,22.8333 256.5,33.1667 256.5,43.5C 269.833,43.5 283.167,43.5 296.5,43.5C 296.5,47.1667 296.5,50.8333 296.5,54.5C 283.167,54.5 269.833,54.5 256.5,54.5C 256.5,65.5 256.5,76.5 256.5,87.5C 271.5,87.5 286.5,87.5 301.5,87.5C 301.5,91.1667 301.5,94.8333 301.5,98.5C 282.5,98.5 263.5,98.5 244.5,98.5C 244.5,66.1667 244.5,33.8333 244.5,1.5 Z"/></g>
<g><path style="opacity:1" fill="#050505" d="M 322.5,1.5 C 327.762,1.19532 332.928,1.52865 338,2.5C 343.009,16.8601 348.009,31.1935 353,45.5C 357.731,31.1406 362.564,16.8072 367.5,2.5C 372.456,1.50585 377.456,1.17252 382.5,1.5C 382.5,33.8333 382.5,66.1667 382.5,98.5C 378.833,98.5 375.167,98.5 371.5,98.5C 371.424,70.4818 371.59,42.4818 372,14.5C 367.685,27.4451 363.352,40.4451 359,53.5C 357.302,54.733 355.302,55.3996 353,55.5C 350.906,55.4644 348.906,55.1311 347,54.5C 342.663,41.4891 338.33,28.4891 334,15.5C 333.5,43.1647 333.333,70.8313 333.5,98.5C 329.833,98.5 326.167,98.5 322.5,98.5C 322.5,66.1667 322.5,33.8333 322.5,1.5 Z"/></g>
<g><path style="opacity:1" fill="#050505" d="M 464.5,87.5 C 464.5,91.1667 464.5,94.8333 464.5,98.5C 445.5,98.5 426.5,98.5 407.5,98.5C 407.5,66.1667 407.5,33.8333 407.5,1.5C 411.5,1.5 415.5,1.5 419.5,1.5C 419.5,30.1667 419.5,58.8333 419.5,87.5C 434.5,87.5 449.5,87.5 464.5,87.5 Z"/></g>
<g><path style="opacity:1" fill="#8d53fe" d="M 102.5,5.5 C 129.771,4.20147 147.271,16.5348 155,42.5C 157.851,70.3112 146.017,88.4779 119.5,97C 90.6563,100.48 72.1563,88.3136 64,60.5C 61.5748,31.3166 74.4081,12.9833 102.5,5.5 Z"/></g>
<g><path style="opacity:1" fill="#fcfcfc" d="M 174.5,12.5 C 203.041,8.71401 214.374,21.0473 208.5,49.5C 214.853,78.4676 203.519,91.1343 174.5,87.5C 174.5,62.5 174.5,37.5 174.5,12.5 Z"/></g>
<g><path style="opacity:1" fill="#d4d0db" d="M 96.5,21.5 C 101.247,21.1357 105.081,22.8023 108,26.5C 109.392,30.3422 109.892,34.1755 109.5,38C 113.304,40.3045 116.97,42.8045 120.5,45.5C 133.2,39.4351 139.033,43.4351 138,57.5C 134.702,62.2205 130.202,63.7205 124.5,62C 123.069,61.5348 121.903,60.7014 121,59.5C 116.994,62.6758 113.16,66.0092 109.5,69.5C 111.206,80.2964 106.539,85.1297 95.5,84C 87.6786,77.5012 87.6786,71.1679 95.5,65C 97,64.8333 98.5,64.6667 100,64.5C 103.044,64.6637 105.877,65.1637 108.5,66C 112.167,63 115.833,60 119.5,57C 118.712,53.9243 118.212,50.7577 118,47.5C 114.236,45.3681 110.736,42.8681 107.5,40C 104.439,40.7902 101.273,41.6236 98,42.5C 90.0196,39.8725 87.3529,34.5392 90,26.5C 91.9651,24.4497 94.1318,22.783 96.5,21.5 Z"/></g>
<g><path style="opacity:1" fill="#8f58fd" d="M 96.5,25.5 C 106.133,26.593 107.8,30.7597 101.5,38C 95.3789,38.5457 92.5456,35.7124 93,29.5C 94.0319,27.9733 95.1986,26.64 96.5,25.5 Z"/></g>
<g><path style="opacity:1" fill="#8e55fe" d="M 125.5,46.5 C 134.306,46.464 136.639,50.2974 132.5,58C 122.415,58.7604 120.082,54.9271 125.5,46.5 Z"/></g>
<g><path style="opacity:1" fill="#8f57fd" d="M 96.5,68.5 C 105.223,67.7015 107.889,71.2015 104.5,79C 98.648,81.9054 94.9814,80.2387 93.5,74C 93.8627,71.8077 94.8627,69.9744 96.5,68.5 Z"/></g>
</svg>
