<?xml version="1.0" standalone="no"?>
<!DOCTYPE svg PUBLIC "-//W3C//DTD SVG 20010904//EN"
 "http://www.w3.org/TR/2001/REC-SVG-20010904/DTD/svg10.dtd">
<svg version="1.0" xmlns="http://www.w3.org/2000/svg"
 width="600.000000pt" height="600.000000pt" viewBox="0 0 600.000000 600.000000"
 preserveAspectRatio="xMidYMid meet">
<metadata>
Created by potrace 1.14, written by Peter Selinger 2001-2017
</metadata>
<g transform="translate(0.000000,600.000000) scale(0.100000,-0.100000)"
fill="#000000" stroke="none">
<path d="M2620 5860 c-652 -98 -1200 -370 -1650 -820 -445 -445 -732 -1010
-825 -1630 -22 -142 -32 -423 -23 -600 29 -545 236 -1106 579 -1567 95 -128
434 -467 562 -562 393 -292 844 -482 1322 -556 141 -22 538 -31 705 -16 666
58 1355 393 1812 880 388 414 636 896 749 1454 47 236 60 634 28 912 -72 617
-374 1233 -828 1686 -460 459 -1060 749 -1700 824 -184 22 -569 19 -731 -5z
m-110 -985 c282 -75 479 -327 483 -615 1 -107 -14 -190 -49 -269 -14 -30 -23
-55 -22 -56 264 -189 766 -551 775 -558 9 -6 31 8 75 48 71 64 211 137 298
155 71 14 210 14 280 -1 241 -51 439 -244 495 -484 17 -71 19 -223 4 -297 -6
-29 -31 -95 -56 -147 -73 -153 -203 -267 -375 -329 -66 -24 -86 -26 -208 -26
-120 0 -143 3 -208 27 -83 30 -155 71 -224 129 -30 26 -51 37 -60 32 -7 -4
-53 -40 -103 -79 -49 -39 -215 -169 -367 -288 l-278 -218 25 -49 c36 -71 57
-171 57 -275 0 -188 -73 -352 -214 -480 -74 -67 -213 -138 -306 -156 -86 -16
-250 -7 -332 20 -192 61 -350 218 -417 414 -24 72 -28 97 -28 202 0 142 22
229 86 337 47 81 145 181 222 226 230 138 536 118 745 -47 l52 -42 368 287
c202 158 373 293 381 300 11 10 9 25 -15 96 -26 75 -29 95 -28 213 0 108 4
141 22 193 13 35 20 67 17 72 -7 12 -782 570 -790 570 -4 0 -35 -21 -68 -46
-129 -97 -252 -139 -402 -137 -114 1 -200 20 -290 65 -213 105 -348 312 -362
553 -21 379 296 700 672 680 50 -3 115 -11 145 -20z"/>
<path d="M2235 4637 c-195 -65 -304 -221 -293 -418 8 -139 92 -269 213 -332
248 -127 541 22 588 299 29 169 -65 344 -225 423 -57 29 -81 34 -155 37 -56 3
-102 -1 -128 -9z"/>
<path d="M4130 3339 c-118 -23 -229 -112 -283 -227 -30 -62 -32 -75 -32 -172
0 -99 2 -110 32 -171 40 -80 120 -159 200 -197 52 -24 70 -27 163 -27 97 0
110 2 172 32 251 119 312 440 122 643 -53 57 -142 105 -223 120 -62 11 -88 11
-151 -1z"/>
<path d="M2279 1966 c-115 -44 -191 -112 -242 -215 -30 -61 -32 -73 -32 -171
0 -97 2 -110 31 -171 77 -163 251 -256 426 -228 177 28 308 158 339 336 30
169 -66 351 -226 428 -52 25 -74 29 -160 32 -67 2 -112 -2 -136 -11z"/>
</g>
</svg>
