<?xml version="1.0" standalone="no"?>
<!DOCTYPE svg PUBLIC "-//W3C//DTD SVG 20010904//EN"
 "http://www.w3.org/TR/2001/REC-SVG-20010904/DTD/svg10.dtd">
<svg version="1.0" xmlns="http://www.w3.org/2000/svg"
 width="3720.000000pt" height="3720.000000pt" viewBox="0 0 3720.000000 3720.000000"
 preserveAspectRatio="xMidYMid meet">
<metadata>
Created by potrace 1.14, written by Peter Selinger 2001-2017
</metadata>
<g transform="translate(0.000000,3720.000000) scale(0.100000,-0.100000)"
fill="#000000" stroke="none">
<path d="M2063 22584 c-500 -60 -936 -274 -1317 -644 -219 -213 -399 -438
-466 -583 -87 -189 -153 -407 -184 -607 -28 -183 -56 -1039 -56 -1750 0 -863
41 -1897 106 -2660 18 -208 18 -208 136 -445 121 -240 287 -501 432 -677 46
-55 75 -77 207 -155 222 -132 388 -222 605 -329 l191 -94 681 0 c772 0 691 -8
942 92 817 324 1290 947 1405 1851 8 65 15 122 15 128 0 5 -184 9 -479 9
l-480 0 -6 -47 c-62 -449 -243 -784 -530 -983 -290 -200 -742 -292 -1093 -222
-314 63 -534 174 -733 372 -150 148 -245 295 -329 512 -66 170 -68 181 -80
483 -39 1043 -39 2486 0 3528 11 275 11 279 41 355 49 123 164 339 237 442 83
117 263 301 357 362 385 251 836 272 1420 65 172 -60 408 -246 515 -406 59
-88 113 -201 143 -297 29 -92 57 -264 57 -348 l0 -56 481 0 481 0 -6 68 c-61
596 -261 1046 -619 1389 -215 206 -527 398 -806 497 -179 64 -504 133 -730
156 -139 14 -401 11 -538 -6z"/>
<path d="M13134 22483 l-131 -4 -6 -511 c-23 -1717 15 -5264 73 -6867 6 -151
10 -299 10 -329 l0 -55 948 6 c1240 7 1654 23 1872 72 738 167 1267 610 1565
1309 56 130 59 150 85 516 96 1365 116 2701 60 3948 -11 226 -12 235 -45 332
-171 490 -467 883 -860 1143 -222 146 -503 260 -798 322 -180 39 -642 77
-1272 105 -232 11 -1279 20 -1501 13z m1906 -843 c785 -71 1297 -375 1560
-925 220 -461 258 -1111 111 -1912 l-30 -162 34 -173 c83 -426 116 -827 95
-1143 -46 -686 -280 -1145 -733 -1440 -257 -167 -584 -270 -1007 -317 -233
-26 -867 -9 -1077 28 l-33 6 0 2998 0 2998 33 6 c31 5 298 33 387 39 111 8
556 6 660 -3z"/>
<path d="M25863 22483 l-63 -4 0 -3879 0 -3880 439 0 439 0 5 2378 c5 2143 15
3382 35 4022 l7 225 498 -1495 c274 -822 507 -1521 519 -1552 l20 -58 67 -19
c202 -60 456 -74 606 -33 98 27 260 105 279 135 8 12 245 714 527 1560 282
845 514 1536 516 1533 2 -2 -1 -349 -7 -772 -19 -1417 -30 -3017 -30 -4476 l0
-1448 440 0 440 0 0 3879 0 3878 -77 7 c-205 17 -565 1 -848 -39 -222 -31
-272 -42 -280 -63 -9 -23 -328 -953 -468 -1367 -64 -187 -243 -723 -399 -1192
-156 -469 -285 -852 -288 -852 -3 -1 -92 250 -199 557 -106 306 -373 1071
-592 1700 -220 628 -399 1147 -399 1152 0 15 -34 26 -145 44 -327 53 -735 76
-1042 59z"/>
<path d="M19560 18600 l0 -3880 2280 0 2280 0 0 440 0 440 -1800 0 -1800 0 0
1320 0 1320 1600 0 1600 0 0 440 0 440 -1600 0 -1600 0 0 1240 0 1240 1800 0
1800 0 0 440 0 440 -2280 0 -2280 0 0 -3880z"/>
<path d="M32600 18600 l0 -3880 2280 0 2280 0 0 440 0 440 -1800 0 -1800 0 0
3440 0 3440 -480 0 -480 0 0 -3880z"/>
<path d="M8160 22143 c-595 -159 -1165 -416 -1588 -716 -238 -169 -538 -449
-700 -654 -375 -475 -607 -1025 -711 -1683 -43 -274 -55 -449 -55 -805 1 -441
7 -495 79 -716 534 -1630 1531 -2535 3010 -2729 340 -45 808 -51 1180 -15 150
15 186 22 305 62 837 279 1532 732 1981 1290 428 533 661 1132 745 1918 22
202 24 700 5 930 -15 182 -38 271 -147 563 -380 1020 -974 1735 -1782 2145
-582 296 -1210 429 -2007 426 -195 -1 -274 -4 -315 -16z m-72 -1289 c183 -46
343 -143 484 -293 72 -76 75 -82 105 -182 72 -240 93 -383 93 -631 l0 -188 38
-24 c328 -208 545 -357 789 -538 l42 -31 133 55 c297 124 478 165 682 155 237
-11 383 -108 485 -320 82 -171 111 -336 111 -643 0 -201 0 -201 -26 -240 -127
-188 -335 -331 -545 -374 -114 -24 -212 -25 -339 -5 -189 31 -306 82 -403 177
-34 33 -64 55 -71 51 -53 -31 -521 -432 -749 -642 l-149 -136 6 -55 c4 -30 9
-118 13 -196 23 -527 -189 -825 -649 -910 -68 -13 -145 -18 -285 -18 l-192 1
-40 28 c-64 44 -251 243 -304 322 -101 153 -147 286 -147 433 0 145 41 269
136 410 58 87 181 219 271 292 l68 55 165 16 c91 10 190 17 220 17 125 0 392
-43 563 -90 43 -12 84 -20 90 -17 24 9 862 700 865 712 2 7 -6 51 -17 97 -39
168 -91 513 -91 613 l0 40 -138 83 c-212 128 -420 280 -666 484 l-39 33 -181
-48 c-100 -26 -266 -69 -371 -97 -109 -29 -203 -49 -220 -46 -45 6 -207 79
-298 133 -147 89 -284 235 -343 370 -81 182 -85 429 -13 693 17 62 29 83 67
123 131 136 403 334 492 359 49 14 260 -3 358 -28z"/>
<path d="M7617 20450 c-53 -56 -115 -129 -138 -163 l-41 -62 5 -120 c4 -66 13
-146 22 -178 65 -246 247 -367 553 -367 l99 0 65 83 c118 149 181 259 213 372
23 77 17 194 -12 250 -64 125 -254 223 -520 270 -147 25 -138 29 -246 -85z"/>
<path d="M9997 18801 c-115 -193 -177 -364 -177 -487 0 -245 187 -354 609
-354 l168 0 41 88 c85 181 112 279 112 406 0 107 -24 176 -85 244 -95 106
-248 156 -535 177 l-86 6 -47 -80z"/>
<path d="M7669 17062 c-71 -79 -124 -169 -154 -265 -31 -98 -31 -130 1 -225
55 -166 152 -300 253 -351 62 -32 175 -54 241 -46 75 8 189 40 276 76 l73 30
31 87 c59 164 74 230 74 342 1 81 -3 117 -19 159 -26 71 -98 149 -168 184
-101 49 -158 59 -363 64 l-190 5 -55 -60z"/>
</g>
</svg>
